<svg width="960" height="540" viewBox="0 0 960 540" role="img" xmlns="http://www.w3.org/2000/svg">
  <rect width="960" height="540" fill="#fff7eb"/>
  <rect x="58" y="54" width="844" height="432" rx="28" fill="#fffaf3" stroke="#6b4028" stroke-width="3"/>
  <text x="480" y="104" fill="#6b4028" font-family="ui-monospace, SFMono-Regular, Menlo, Consolas, monospace" font-size="32" font-weight="700" text-anchor="middle">KKT Block System</text>
  <g stroke="#6b4028" stroke-width="4">
    <rect x="128" y="152" width="376" height="276" rx="18" fill="#fff7eb"/>
    <rect x="128" y="152" width="234" height="172" fill="#f7edff"/>
    <rect x="362" y="152" width="142" height="172" fill="#fffaf3"/>
    <rect x="128" y="324" width="234" height="104" fill="#fffaf3"/>
    <rect x="362" y="324" width="142" height="104" fill="#fff7eb"/>
  </g>
  <g stroke="#ead5bc" stroke-width="3" fill="none">
    <line x1="362" y1="152" x2="362" y2="428"/>
    <line x1="128" y1="324" x2="504" y2="324"/>
  </g>
  <g fill="#6b4028" font-family="ui-monospace, SFMono-Regular, Menlo, Consolas, monospace" font-weight="700" text-anchor="middle">
    <text x="245" y="246" font-size="34">H</text>
    <text x="433" y="246" font-size="30">G^T</text>
    <text x="245" y="384" font-size="30">G</text>
    <text x="433" y="384" font-size="30">0</text>
  </g>
  <g stroke="#6b4028" stroke-width="4" fill="#fff7eb">
    <rect x="552" y="176" width="120" height="228" rx="16"/>
    <rect x="732" y="176" width="120" height="228" rx="16" fill="#f7edff"/>
  </g>
  <line x1="612" y1="290" x2="612" y2="290" stroke="#6b4028" stroke-width="4"/>
  <g stroke="#ead5bc" stroke-width="3">
    <line x1="552" y1="290" x2="672" y2="290"/>
    <line x1="732" y1="290" x2="852" y2="290"/>
  </g>
  <g fill="#6b4028" font-family="ui-monospace, SFMono-Regular, Menlo, Consolas, monospace" font-weight="700" text-anchor="middle">
    <text x="612" y="250" font-size="24">dq</text>
    <text x="612" y="360" font-size="24">lambda</text>
    <text x="792" y="250" font-size="24">-g</text>
    <text x="792" y="360" font-size="24">-c</text>
  </g>
  <g stroke="#d8742f" stroke-width="5" fill="none" stroke-linecap="round">
    <line x1="514" y1="290" x2="542" y2="290"/>
    <line x1="682" y1="290" x2="722" y2="290"/>
  </g>
  <g fill="#d8742f">
    <polygon points="542,290 518,278 518,302"/>
    <polygon points="722,290 698,278 698,302"/>
  </g>
  <g fill="#6b4028" font-family="ui-monospace, SFMono-Regular, Menlo, Consolas, monospace" text-anchor="middle">
    <text x="316" y="462" font-size="18" fill="#4f82aa">motion block plus constraint rows</text>
    <text x="704" y="462" font-size="18" fill="#4f82aa">solve increments and multipliers</text>
  </g>
</svg>
